<?xml version="1.0" encoding="UTF-8"?> <!-- Generator: Adobe Illustrator 24.3.0, SVG Export Plug-In . SVG Version: 6.00 Build 0) --> <svg xmlns="http://www.w3.org/2000/svg" xmlns:xlink="http://www.w3.org/1999/xlink" version="1.1" id="Capa_1" x="0px" y="0px" viewBox="0 0 843.7 843.7" style="enable-background:new 0 0 843.7 843.7;" xml:space="preserve"> <style type="text/css"> .st0{fill:url(#SVGID_1_);} </style> <circle cx="421.8" cy="421.8" r="421.8"></circle> <radialGradient id="SVGID_1_" cx="421.8" cy="420.0898" r="554.9982" fx="79.9303" fy="851.9739" gradientTransform="matrix(1 0 0 -1 0 841.8898)" gradientUnits="userSpaceOnUse"> <stop offset="0.1679" style="stop-color:#FFF9B3"></stop> <stop offset="0.4004" style="stop-color:#FF9945"></stop> <stop offset="0.7341" style="stop-color:#D11EAF"></stop> <stop offset="0.7523" style="stop-color:#CB1DB0"></stop> <stop offset="0.7775" style="stop-color:#B91AB3"></stop> <stop offset="0.8069" style="stop-color:#9B16B7"></stop> <stop offset="0.8394" style="stop-color:#7210BD"></stop> <stop offset="0.8745" style="stop-color:#3D09C5"></stop> <stop offset="0.9099" style="stop-color:#0000CE"></stop> </radialGradient> <circle class="st0" cx="421.8" cy="421.8" r="388.4"></circle> <g> <g> <path d="M172.9,567.4c0.3,2.4,0.7,6.1,3.6,7c1.9,0.6,3.6,0.6,4.3,0.6c0.3,0,0.5,0.1,0.5,0.3c0,0.4-0.6,0.6-1.4,0.6 c-1.5,0-8.6-0.1-11-0.3c-1.5-0.1-1.8-0.3-1.8-0.7c0-0.3,0.1-0.4,0.5-0.5s0.4-1.2,0.3-2.4l-3.2-34.3h-0.2L148.3,572 c-1.4,2.9-1.6,3.5-2.2,3.5c-0.5,0-0.8-0.7-2-3c-1.7-3.2-7.4-14.7-7.7-15.3c-0.6-1.2-8-17-8.7-18.8h-0.3l-2.6,30.6 c-0.1,1.1-0.1,2.2-0.1,3.4c0,1,0.7,1.8,1.7,2c1.1,0.3,2.1,0.3,2.5,0.3c0.3,0,0.5,0.1,0.5,0.3c0,0.5-0.4,0.6-1.2,0.6 c-2.4,0-5.6-0.2-6.1-0.2c-0.6,0-3.8,0.2-5.5,0.2c-0.7,0-1.1-0.1-1.1-0.6c0-0.2,0.3-0.3,0.7-0.3c0.5,0,1,0,2-0.2 c2.2-0.4,2.4-3,2.6-5.5l4.8-43c0.1-0.7,0.3-1.2,0.7-1.2s0.7,0.3,1,1l20.2,41.5l19.4-41.4c0.3-0.6,0.5-1.1,1-1.1s0.7,0.5,0.8,1.8 L172.9,567.4z"></path> <path d="M204.3,527.6c0.8-2.2,1.1-2.6,1.5-2.6s0.7,0.3,1.5,2.4c1,2.5,11.4,29.8,15.4,39.8c2.4,5.9,4.3,6.9,5.7,7.3 c1,0.3,2,0.4,2.6,0.4c0.4,0,0.7,0.1,0.7,0.4c0,0.4-0.6,0.5-1.3,0.5c-1,0-5.8,0-10.4-0.1c-1.3-0.1-2-0.1-2-0.5 c0-0.3,0.2-0.4,0.5-0.5c0.4-0.1,0.8-0.7,0.4-1.8l-6.1-16.2c-0.1-0.3-0.3-0.4-0.6-0.4h-14.3c-0.3,0-0.5,0.2-0.7,0.5l-4,11.7 c-0.6,1.6-0.9,3.2-0.9,4.4c0,1.3,1.4,1.9,2.5,1.9h0.7c0.5,0,0.7,0.1,0.7,0.4c0,0.4-0.4,0.5-1,0.5c-1.6,0-4.4-0.2-5.1-0.2 s-4.4,0.2-7.5,0.2c-0.9,0-1.3-0.1-1.3-0.5c0-0.3,0.3-0.4,0.6-0.4c0.5,0,1.4-0.1,1.9-0.1c3-0.4,4.4-2.9,5.5-6.2L204.3,527.6z M211.2,554c0.3,0,0.3-0.2,0.3-0.5l-6.3-17.8c-0.3-1-0.7-1-1,0l-5.8,17.8c-0.1,0.3,0,0.5,0.2,0.5H211.2z"></path> <path d="M239.2,545.1c0-10.3,0-12.1-0.1-14.3s-0.7-3.3-2.8-3.8c-0.5-0.1-1.6-0.2-2.2-0.2c-0.3,0-0.5-0.1-0.5-0.4 c0-0.4,0.3-0.5,1.1-0.5c3,0,6.9,0.2,7.3,0.2c0.6,0,4.4-0.2,6.4-0.2c0.7,0,1.1,0.1,1.1,0.5c0,0.3-0.3,0.4-0.5,0.4 c-0.5,0-0.9,0.1-1.6,0.2c-1.8,0.3-2.3,1.5-2.4,3.8c-0.1,2.1-0.1,4-0.1,14.3v4h0.3c1.1-1.3,13.1-13.4,15.4-16 c1.8-1.9,3.6-3.6,3.6-4.8c0-0.8-0.3-1.2-0.9-1.4c-0.3-0.1-0.6-0.3-0.6-0.5c0-0.3,0.3-0.5,0.8-0.5c1.3,0,3.4,0.2,5,0.2 c0.3,0,4.7-0.2,6.3-0.2c0.7,0,1,0.1,1,0.5c0,0.3-0.1,0.5-0.7,0.5c-1,0-2.4,0.3-3.7,0.9c-2.7,1.2-4.2,2.8-7.1,5.7 c-1.6,1.6-13.1,12.8-14.5,14.5c1.7,1.9,15.4,16.1,18.1,18.6c5.5,5.1,6.7,6.2,9.8,7.5c1.7,0.7,3.6,0.9,4.1,0.9s0.9,0.1,0.9,0.4 s-0.3,0.5-1.5,0.5h-3.4c-1.8,0-3.1,0-4.6-0.1c-3.5-0.3-5.1-1.8-8-4c-3-2.4-17-17.6-20.1-21.4h-0.3v6.5c0,6.3,0,11.5,0.3,14.3 c0.2,1.9,0.6,3.4,2.6,3.6c0.9,0.1,2,0.3,2.6,0.3c0.4,0,0.5,0.2,0.5,0.4c0,0.3-0.3,0.5-1.1,0.5c-3.2,0-7.1-0.2-7.6-0.2 s-4.4,0.2-6.3,0.2c-0.7,0-1.1-0.1-1.1-0.5c0-0.2,0.1-0.4,0.5-0.4c0.6,0,1.4-0.1,2-0.3c1.3-0.3,1.6-1.7,1.9-3.6 c0.3-2.8,0.3-8,0.3-14.3L239.2,545.1L239.2,545.1z"></path> <path d="M288.6,545.1c0-10.3,0-12.1-0.1-14.3s-0.7-3.3-2.8-3.8c-0.5-0.1-1.6-0.2-2.2-0.2c-0.3,0-0.5-0.1-0.5-0.4 c0-0.4,0.3-0.5,1.1-0.5c1.5,0,3.3,0,4.8,0.1l2.7,0.1c0.5,0,13.6,0,15.1-0.1c1.3-0.1,2.3-0.2,2.8-0.3c0.3-0.1,0.6-0.3,0.9-0.3 c0.2,0,0.3,0.3,0.3,0.6c0,0.5-0.3,1.3-0.5,3.1c-0.1,0.7-0.2,3.6-0.3,4.4c-0.1,0.3-0.2,0.7-0.5,0.7c-0.4,0-0.5-0.3-0.5-0.9 c0-0.5-0.1-1.6-0.4-2.4c-0.5-1.1-1.1-1.8-4.7-2.2c-1.1-0.1-8.3-0.2-9-0.2c-0.3,0-0.4,0.2-0.4,0.7v18.2c0,0.5,0.1,0.7,0.4,0.7 c0.9,0,9,0,10.5-0.1c1.6-0.1,2.5-0.3,3.1-0.9c0.5-0.5,0.7-0.9,1-0.9c0.2,0,0.3,0.1,0.3,0.5s-0.3,1.5-0.5,3.7 c-0.1,1.3-0.3,3.8-0.3,4.2c0,0.5,0,1.3-0.5,1.3c-0.3,0-0.5-0.3-0.5-0.6c0-0.7,0-1.3-0.3-2.2s-0.9-2-3.4-2.3 c-1.8-0.2-8.3-0.3-9.4-0.3c-0.3,0-0.5,0.2-0.5,0.5v5.8c0,2.2-0.1,9.9,0,11.3c0.2,4.6,1.2,5.4,7.7,5.4c1.7,0,4.6,0,6.3-0.7 s2.5-2,3-4.8c0.1-0.7,0.3-1,0.6-1c0.4,0,0.4,0.5,0.4,1s-0.5,5-0.9,6.4c-0.5,1.7-1,1.7-3.6,1.7c-4.9,0-8.6-0.1-11.2-0.2 c-2.6-0.1-4.2-0.2-5.1-0.2c-0.1,0-1.3,0-2.6,0.1c-1.3,0-2.8,0.1-3.8,0.1c-0.7,0-1.1-0.1-1.1-0.5c0-0.2,0.1-0.4,0.5-0.4 c0.6,0,1.4-0.1,2-0.3c1.3-0.3,1.6-1.7,1.9-3.6c0.3-2.8,0.3-8,0.3-14.3L288.6,545.1L288.6,545.1z"></path> <path d="M345.4,545.1c0-10.3,0-12.1-0.1-14.3s-0.7-3.3-2.8-3.8c-0.5-0.1-1.6-0.2-2.2-0.2c-0.3,0-0.5-0.1-0.5-0.4 c0-0.4,0.3-0.5,1.1-0.5c3,0,7,0.2,7.6,0.2s4.6-0.2,6.5-0.2c0.7,0,1.1,0.1,1.1,0.5c0,0.3-0.3,0.4-0.5,0.4c-0.5,0-0.9,0.1-1.6,0.2 c-1.8,0.3-2.3,1.5-2.4,3.8c-0.1,2.1-0.1,4-0.1,14.3v9.2c0,9.5,2.1,13.6,5,16.3c3.2,3,6.2,3.6,10,3.6c4,0,8-1.9,10.4-4.8 c3-3.8,3.8-9.4,3.8-16.2V545c0-10.3,0-12.1-0.1-14.3s-0.7-3.3-2.8-3.8c-0.5-0.1-1.6-0.2-2.2-0.2c-0.3,0-0.5-0.1-0.5-0.4 c0-0.4,0.3-0.5,1.1-0.5c3,0,6.6,0.2,7,0.2c0.5,0,3.6-0.2,5.5-0.2c0.7,0,1.1,0.1,1.1,0.5c0,0.3-0.3,0.4-0.5,0.4 c-0.5,0-0.9,0.1-1.6,0.2c-1.8,0.4-2.3,1.5-2.4,3.8c-0.1,2.1-0.1,4-0.1,14.3v7.1c0,7.1-0.8,15-6.1,19.7c-4.8,4.2-9.7,4.9-13.6,4.9 c-2.2,0-8.9-0.3-13.6-4.7c-3.2-3.1-5.7-7.7-5.7-17.4L345.4,545.1L345.4,545.1z"></path> <path d="M401.1,545.1c0-10.3,0-12.1-0.1-14.3s-0.7-3.3-2.8-3.8c-0.5-0.1-1.6-0.2-2.2-0.2c-0.3,0-0.5-0.1-0.5-0.4 c0-0.4,0.3-0.5,1.1-0.5c3,0,6.9,0.2,7.5,0.2c1.5,0,5.3-0.2,8.3-0.2c8.2,0,11.2,2.8,12.3,3.8c1.5,1.4,3.3,4.4,3.3,7.9 c0,9.4-6.9,15.7-16.2,15.7c-0.3,0-1.1,0-1.4-0.1c-0.3,0-0.7-0.1-0.7-0.5c0-0.5,0.4-0.6,1.8-0.6c6.4,0,11.4-4.7,11.4-10.8 c0-2.2-0.2-6.6-3.7-10.2s-7.5-3.3-9-3.3c-1.1,0-2.2,0.1-2.8,0.4c-0.4,0.1-0.5,0.6-0.5,1.3v27.1c0,6.3,0,11.5,0.3,14.3 c0.2,1.9,0.6,3.4,2.6,3.6c0.9,0.1,2.4,0.3,3,0.3c0.4,0,0.5,0.2,0.5,0.4c0,0.3-0.3,0.5-1.1,0.5c-3.6,0-7.8-0.2-8.1-0.2 c-0.2,0-4.4,0.2-6.3,0.2c-0.7,0-1.1-0.1-1.1-0.5c0-0.2,0.1-0.4,0.5-0.4c0.6,0,1.4-0.1,2-0.3c1.3-0.3,1.6-1.7,1.9-3.6 c0.3-2.8,0.3-8,0.3-14.3L401.1,545.1L401.1,545.1z"></path> <path d="M469.4,527.6c0.8-2.2,1.1-2.6,1.5-2.6s0.7,0.3,1.5,2.4c1,2.5,11.4,29.8,15.4,39.8c2.4,5.9,4.3,6.9,5.7,7.3 c1,0.3,2,0.4,2.6,0.4c0.4,0,0.7,0.1,0.7,0.4c0,0.4-0.6,0.5-1.3,0.5c-1,0-5.8,0-10.4-0.1c-1.3-0.1-2-0.1-2-0.5 c0-0.3,0.2-0.4,0.5-0.5c0.4-0.1,0.8-0.7,0.4-1.8l-6.1-16.2c-0.1-0.3-0.3-0.4-0.6-0.4h-14.2c-0.3,0-0.5,0.2-0.7,0.5l-4,11.7 c-0.6,1.6-0.9,3.2-0.9,4.4c0,1.3,1.4,1.9,2.5,1.9h0.7c0.5,0,0.7,0.1,0.7,0.4c0,0.4-0.4,0.5-1,0.5c-1.6,0-4.4-0.2-5.1-0.2 s-4.4,0.2-7.5,0.2c-0.9,0-1.3-0.1-1.3-0.5c0-0.3,0.3-0.4,0.6-0.4c0.5,0,1.4-0.1,1.9-0.1c3-0.4,4.4-2.9,5.5-6.2L469.4,527.6z M476.3,554c0.3,0,0.3-0.2,0.3-0.5l-6.3-17.8c-0.3-1-0.7-1-1,0l-5.8,17.8c-0.1,0.3,0,0.5,0.2,0.5H476.3z"></path> <path d="M530.9,559.1c0-5.3-0.3-6.1-3-6.8c-0.5-0.1-1.6-0.2-2.2-0.2c-0.3,0-0.5-0.1-0.5-0.4c0-0.4,0.3-0.5,1.1-0.5 c3,0,7.1,0.2,7.5,0.2s4.5-0.2,6.5-0.2c0.7,0,1.1,0.1,1.1,0.5c0,0.3-0.3,0.4-0.5,0.4c-0.5,0-0.9,0.1-1.6,0.2 c-1.8,0.3-2.3,1.5-2.4,3.8c-0.1,2.1-0.1,4.1-0.1,6.9v7.4c0,3-0.1,3.1-0.9,3.6c-4.2,2.2-10.2,3-14,3c-5,0-14.4-0.7-21.7-7.1 c-4-3.5-7.9-10.6-7.9-18.8c0-10.6,5.1-18,11-21.7s12.5-4.2,17.6-4.2c4.2,0,8.8,0.9,10.1,1.1c1.4,0.3,3.7,0.6,5.3,0.7 c0.7,0.1,0.8,0.3,0.8,0.6c0,0.9-0.5,2.8-0.5,9.4c0,1.1-0.1,1.4-0.6,1.4c-0.3,0-0.4-0.4-0.5-1c-0.1-0.9-0.4-2.8-1.4-4.4 c-1.6-2.5-7-5.3-15.5-5.3c-4.2,0-9.1,0.4-14.1,4.4c-3.8,3-6.5,9-6.5,16.8c0,9.3,4.7,16,7,18.3c5.2,5.1,11.2,7.1,17.3,7.1 c2.4,0,5.8-0.4,7.5-1.4c0.9-0.5,1.3-1.2,1.3-2.3L530.9,559.1L530.9,559.1z"></path> <path d="M549.6,545.1c0-10.3,0-12.1-0.1-14.3s-0.7-3.3-2.8-3.8c-0.5-0.1-1.7-0.2-2.2-0.2c-0.3,0-0.5-0.1-0.5-0.4 c0-0.4,0.3-0.5,1.1-0.5c1.5,0,3.3,0,4.8,0.1l2.7,0.1c0.5,0,13.6,0,15.1-0.1c1.3-0.1,2.3-0.2,2.8-0.3c0.3-0.1,0.6-0.3,0.9-0.3 c0.2,0,0.3,0.3,0.3,0.6c0,0.5-0.3,1.3-0.5,3.1c-0.1,0.7-0.2,3.6-0.3,4.4c-0.1,0.3-0.2,0.7-0.5,0.7c-0.4,0-0.5-0.3-0.5-0.9 c0-0.5-0.1-1.6-0.4-2.4c-0.5-1.1-1.1-1.8-4.7-2.2c-1.1-0.1-8.3-0.2-9-0.2c-0.3,0-0.4,0.2-0.4,0.7v18.2c0,0.5,0.1,0.7,0.4,0.7 c0.9,0,9,0,10.5-0.1c1.6-0.1,2.5-0.3,3.1-0.9c0.5-0.5,0.7-0.9,1-0.9c0.2,0,0.3,0.1,0.3,0.5s-0.3,1.5-0.5,3.7 c-0.1,1.3-0.3,3.8-0.3,4.2c0,0.5,0,1.3-0.5,1.3c-0.3,0-0.5-0.3-0.5-0.6c0-0.7,0-1.3-0.3-2.2s-0.9-2-3.4-2.3 c-1.8-0.2-8.3-0.3-9.4-0.3c-0.3,0-0.5,0.2-0.5,0.5v5.8c0,2.2-0.1,9.9,0,11.3c0.2,4.6,1.2,5.4,7.7,5.4c1.7,0,4.6,0,6.3-0.7 s2.5-2,3-4.8c0.1-0.7,0.3-1,0.6-1c0.4,0,0.4,0.5,0.4,1s-0.5,5-0.9,6.4c-0.5,1.7-1,1.7-3.6,1.7c-4.9,0-8.6-0.1-11.2-0.2 c-2.6-0.1-4.2-0.2-5.1-0.2c-0.1,0-1.3,0-2.6,0.1c-1.3,0-2.8,0.1-3.8,0.1c-0.7,0-1.1-0.1-1.1-0.5c0-0.2,0.1-0.4,0.5-0.4 c0.6,0,1.4-0.1,2-0.3c1.3-0.3,1.7-1.7,1.9-3.6c0.3-2.8,0.3-8,0.3-14.3L549.6,545.1L549.6,545.1z"></path> <path d="M586.7,566.9c0.1,5.4,0.8,7.1,2.6,7.7c1.3,0.3,2.7,0.4,3.3,0.4c0.3,0,0.5,0.1,0.5,0.4c0,0.4-0.4,0.5-1.2,0.5 c-3.8,0-6.4-0.2-7-0.2s-3.4,0.2-6.3,0.2c-0.7,0-1.1-0.1-1.1-0.5c0-0.3,0.2-0.4,0.5-0.4c0.5,0,1.7-0.1,2.7-0.4c1.7-0.5,2-2.4,2-8.4 l0.1-37.8c0-2.6,0.2-3.3,0.7-3.3s1.6,1.5,2.3,2.1c1,1.1,10.8,11.7,21,22.6c6.5,7,13.7,15,15.8,17.2l-0.7-33.5 c-0.1-4.3-0.5-5.7-2.6-6.3c-1.2-0.3-2.7-0.3-3.2-0.3s-0.5-0.2-0.5-0.5c0-0.4,0.5-0.5,1.3-0.5c3,0,6.1,0.2,6.9,0.2 c0.7,0,2.9-0.2,5.6-0.2c0.7,0,1.2,0.1,1.2,0.5c0,0.3-0.3,0.5-0.7,0.5c-0.3,0-0.8,0-1.6,0.2c-2.2,0.5-2.4,1.9-2.4,5.9l-0.1,38.7 c0,4.4-0.1,4.7-0.6,4.7s-1.3-0.7-4.8-4.2c-0.7-0.7-10.2-10.4-17.2-17.9c-7.7-8.2-15.1-16.6-17.2-18.9L586.7,566.9z"></path> <path d="M642,569.7c-6.4-5.7-8-13.3-8-19.5c0-4.4,1.5-12.1,7.4-18c4-4,10-7.1,20.1-7.1c2.6,0,6.3,0.2,9.6,0.8 c2.5,0.5,4.6,0.9,6.7,1c0.7,0.1,0.9,0.3,0.9,0.7c0,0.5-0.2,1.3-0.3,3.7c-0.1,2.2-0.1,5.8-0.2,6.8c-0.1,1-0.2,1.4-0.6,1.4 c-0.5,0-0.5-0.5-0.5-1.4c0-2.6-1.1-5.3-2.8-6.7c-2.3-2-7.4-3.8-13.2-3.8c-8.8,0-12.9,2.6-15.2,4.8c-4.8,4.6-5.9,10.5-5.9,17.2 c0,12.6,9.7,24.2,23.8,24.2c4.9,0,8.8-0.6,11.5-3.3c1.4-1.5,2.2-4.4,2.4-5.5c0.1-0.7,0.3-1,0.7-1c0.3,0,0.5,0.5,0.5,1 s-0.8,6.2-1.5,8.4c-0.4,1.3-0.5,1.4-1.7,1.9c-2.6,1.1-7.7,1.5-11.9,1.5C653.9,576.8,647.2,574.4,642,569.7z"></path> <path d="M701.6,558.8c0-3.6-0.7-5-1.5-6.9c-0.5-1.1-9.3-15.6-11.6-19c-1.6-2.4-3.3-4.1-4.5-4.9c-1-0.7-2.2-1.1-2.8-1.1 c-0.3,0-0.7-0.1-0.7-0.5c0-0.3,0.3-0.5,0.9-0.5c1.3,0,6.2,0.2,6.5,0.2c0.5,0,3-0.2,5.5-0.2c0.7,0,0.9,0.2,0.9,0.5s-0.4,0.3-1,0.6 c-0.5,0.3-0.9,0.7-0.9,1.2c0,0.8,0.3,1.6,0.9,2.6c1.1,1.9,11,18.9,12.1,20.9c1.3-2.8,9.6-17.2,11-19.4c0.9-1.4,1.1-2.5,1.1-3.4 s-0.3-1.6-1.1-1.8c-0.6-0.2-1-0.3-1-0.7c0-0.3,0.4-0.4,1.1-0.4c1.7,0,3.8,0.2,4.4,0.2c0.4,0,5.1-0.2,6.4-0.2 c0.5,0,0.9,0.1,0.9,0.4s-0.3,0.5-0.9,0.5c-0.7,0-2,0.3-3,0.9c-1.3,0.8-2,1.6-3.5,3.4c-2.2,2.6-11.4,18.1-12.6,21 c-1,2.4-1,4.4-1,6.6v5.7c0,1.1,0,3.8,0.2,6.6c0.1,1.9,0.7,3.4,2.7,3.6c0.9,0.1,2.4,0.3,3,0.3c0.4,0,0.5,0.2,0.5,0.4 c0,0.3-0.3,0.5-1.1,0.5c-3.6,0-7.8-0.2-8.1-0.2s-4.5,0.2-6.5,0.2c-0.7,0-1.1-0.1-1.1-0.5c0-0.2,0.1-0.4,0.5-0.4 c0.6,0,1.4-0.1,2-0.3c1.3-0.3,1.9-1.7,2-3.6c0.2-2.8,0.2-5.5,0.2-6.6L701.6,558.8L701.6,558.8z"></path> </g> <g> <path d="M364.8,607.5c0-5.5,0-6.4-0.1-7.6s-0.4-1.8-1.5-2c-0.3-0.1-0.9-0.1-1.2-0.1c-0.1,0-0.3-0.1-0.3-0.2c0-0.2,0.2-0.3,0.6-0.3 c1.6,0,3.8,0.1,4,0.1c0.8,0,2.2-0.1,3.8-0.1c5.7,0,7,3.5,7,5.3c0,2.9-1.6,4.6-3.3,6.3c2.6,0.8,6.1,3.3,6.1,7.4 c0,3.7-2.9,7.6-8.9,7.6c-0.4,0-1.5-0.1-2.5-0.1c-1-0.1-2-0.1-2.1-0.1s-0.7,0-1.4,0c-0.7,0-1.5,0.1-2,0.1c-0.4,0-0.6-0.1-0.6-0.3 c0-0.1,0.1-0.2,0.3-0.2c0.3,0,0.7-0.1,1.1-0.1c0.7-0.1,0.9-0.9,1-1.9c0.2-1.5,0.2-4.2,0.2-7.6L364.8,607.5L364.8,607.5z M367.6,608.3c0,0.2,0.1,0.3,0.2,0.4c0.2,0,0.8,0.1,2.1,0.1c2,0,2.5-0.1,3.2-0.9s1.3-2.1,1.3-3.5c0-2.9-1.3-6-4.7-6 c-0.4,0-1.1,0-1.7,0.2c-0.3,0.1-0.4,0.2-0.4,0.4V608.3L367.6,608.3z M367.6,612c0,2.7,0,7,0,7.6c0.1,1.7,0.1,2.2,1.2,2.7 c0.9,0.5,2.5,0.5,3.1,0.5c1.9,0,4.9-1,4.9-5c0-2.1-0.7-5.1-3.4-7c-1.2-0.8-2.1-0.9-2.9-1c-0.5-0.1-2.2-0.1-2.7-0.1 c-0.1,0-0.2,0.1-0.2,0.2V612z"></path> <path d="M390.9,616c0-1.6-0.3-2.3-0.7-3.1c-0.2-0.5-4.2-7.1-5.3-8.6c-0.8-1.1-1.5-1.9-2-2.2s-1-0.5-1.3-0.5 c-0.1,0-0.3-0.1-0.3-0.2s0.1-0.2,0.4-0.2c0.6,0,2.8,0.1,3,0.1s1.4-0.1,2.5-0.1c0.3,0,0.4,0.1,0.4,0.2c0,0.1-0.2,0.1-0.5,0.3 c-0.2,0.1-0.4,0.3-0.4,0.5c0,0.4,0.1,0.7,0.4,1.2c0.5,0.9,5,8.6,5.5,9.5c0.6-1.3,4.4-7.8,5-8.8c0.4-0.6,0.5-1.1,0.5-1.5 s-0.1-0.8-0.5-0.8c-0.3-0.1-0.5-0.1-0.5-0.3c0-0.1,0.2-0.2,0.5-0.2c0.8,0,1.7,0.1,2,0.1c0.2,0,2.3-0.1,2.9-0.1 c0.2,0,0.4,0.1,0.4,0.2c0,0.1-0.1,0.2-0.4,0.2s-0.9,0.1-1.4,0.4c-0.6,0.4-0.9,0.7-1.6,1.5c-1,1.2-5.2,8.2-5.7,9.5 c-0.5,1.1-0.5,2-0.5,3v2.6c0,0.5,0,1.7,0.1,3c0.1,0.9,0.3,1.5,1.2,1.6c0.4,0.1,1.1,0.1,1.4,0.1c0.2,0,0.2,0.1,0.2,0.2 s-0.1,0.2-0.5,0.2c-1.6,0-3.5-0.1-3.7-0.1s-2,0.1-2.9,0.1c-0.3,0-0.5-0.1-0.5-0.2c0-0.1,0.1-0.2,0.2-0.2c0.3,0,0.6-0.1,0.9-0.1 c0.6-0.1,0.9-0.8,0.9-1.6c0.1-1.3,0.1-2.5,0.1-3L390.9,616L390.9,616z"></path> <path d="M421.8,620.5c-3.4-3-4.2-7-4.2-10.4c0-2.3,0.8-6.4,3.9-9.6c2.1-2.1,5.3-3.7,10.7-3.7c1.4,0,3.4,0.1,5.1,0.4 c1.3,0.2,2.5,0.5,3.6,0.5c0.4,0,0.5,0.2,0.5,0.4c0,0.3-0.1,0.7-0.2,2c-0.1,1.2-0.1,3.1-0.1,3.6s-0.1,0.7-0.3,0.7s-0.3-0.2-0.3-0.7 c0-1.4-0.6-2.8-1.5-3.6c-1.2-1-3.9-2-7-2c-4.7,0-6.8,1.4-8.1,2.6c-2.6,2.5-3.2,5.6-3.2,9.1c0,6.7,5.1,12.8,12.6,12.8 c2.6,0,4.7-0.3,6.1-1.8c0.7-0.8,1.2-2.3,1.3-2.9c0.1-0.4,0.1-0.5,0.3-0.5s0.2,0.2,0.2,0.5c0,0.2-0.4,3.3-0.8,4.5 c-0.2,0.7-0.3,0.7-0.9,1c-1.4,0.6-4.1,0.8-6.3,0.8C428.2,624.3,424.6,623,421.8,620.5z"></path> <path d="M448.3,609.8c0-4.7,0-5.5-0.1-6.5s-0.3-1.5-1.3-1.7c-0.2-0.1-0.8-0.1-1-0.1c-0.1,0-0.2-0.1-0.2-0.2c0-0.2,0.2-0.2,0.5-0.2 c1.3,0,3.2,0.1,3.4,0.1c0.3,0,2.6-0.1,3.5-0.1c1.9,0,3.9,0.2,5.5,1.3c0.8,0.5,2.1,2,2.1,4.1c0,2.2-0.9,4.4-3.6,6.9 c2.5,3.1,4.5,5.8,6.2,7.7c1.6,1.7,2.9,2,3.7,2.2c0.6,0.1,1,0.1,1.2,0.1c0.1,0,0.3,0.1,0.3,0.2c0,0.2-0.2,0.2-0.7,0.2h-2.1 c-1.7,0-2.4-0.1-3.2-0.6c-1.3-0.7-2.3-2.2-4-4.4c-1.3-1.6-2.7-3.7-3.3-4.4c-0.1-0.1-0.2-0.2-0.4-0.2l-3.7-0.1 c-0.1,0-0.2,0.1-0.2,0.2v0.7c0,2.9,0,5.2,0.2,6.5c0.1,0.9,0.3,1.5,1.2,1.6c0.4,0.1,1.1,0.1,1.3,0.1s0.2,0.1,0.2,0.2 c0,0.1-0.2,0.2-0.5,0.2c-1.7,0-3.5-0.1-3.7-0.1c0,0-1.9,0.1-2.8,0.1c-0.3,0-0.5-0.1-0.5-0.2c0-0.1,0.1-0.2,0.2-0.2 c0.3,0,0.6-0.1,0.9-0.1c0.6-0.1,0.8-0.8,0.9-1.6c0.1-1.3,0.1-3.6,0.1-6.5L448.3,609.8L448.3,609.8z M450.7,612.4 c0,0.1,0.1,0.3,0.2,0.4c0.5,0.3,1.8,0.5,3.1,0.5c0.7,0,1.6-0.1,2.2-0.6c1.1-0.7,1.8-2.3,1.8-4.6c0-3.8-2-6-5.2-6 c-0.9,0-1.7,0.1-2,0.2c-0.2,0.1-0.2,0.2-0.2,0.4v9.7L450.7,612.4L450.7,612.4z"></path> <path d="M475.1,615.1c0,2.9,0,5.2,0.1,6.5c0.1,0.9,0.3,1.5,1.2,1.6c0.4,0.1,1.1,0.1,1.4,0.1c0.2,0,0.2,0.1,0.2,0.2 s-0.1,0.2-0.5,0.2c-1.7,0-3.5-0.1-3.7-0.1s-2,0.1-2.9,0.1c-0.3,0-0.5-0.1-0.5-0.2c0-0.1,0.1-0.2,0.2-0.2c0.3,0,0.6-0.1,0.9-0.1 c0.6-0.1,0.8-0.8,0.9-1.6c0.1-1.3,0.1-3.6,0.1-6.5v-5.3c0-4.7,0-5.5-0.1-6.5s-0.4-1.5-1-1.7c-0.3-0.1-0.7-0.1-0.9-0.1 c-0.1,0-0.2-0.1-0.2-0.2c0-0.2,0.1-0.2,0.5-0.2c1,0,2.9,0.1,3,0.1s2-0.1,2.9-0.1c0.3,0,0.5,0.1,0.5,0.2s-0.1,0.2-0.2,0.2 c-0.2,0-0.4,0-0.8,0.1c-0.8,0.1-1.1,0.7-1.1,1.7c-0.1,1-0.1,1.8-0.1,6.5L475.1,615.1L475.1,615.1z"></path> <path d="M482.8,623.4c-0.4-0.2-0.5-0.3-0.5-1.1c0-1.5,0.1-2.7,0.2-3.2c0-0.3,0.1-0.5,0.2-0.5c0.2,0,0.2,0.1,0.2,0.3 c0,0.3,0,0.7,0.1,1.1c0.4,2.2,2.4,3.1,4.4,3.1c2.9,0,4.3-2.1,4.3-4c0-2.1-0.9-3.3-3.5-5.4l-1.3-1.1c-3.2-2.6-3.9-4.5-3.9-6.5 c0-3.2,2.4-5.4,6.2-5.4c1.2,0,2,0.1,2.8,0.3c0.6,0.1,0.8,0.1,1,0.1s0.3,0.1,0.3,0.2s-0.1,1.1-0.1,3.2c0,0.5-0.1,0.7-0.2,0.7 c-0.2,0-0.2-0.1-0.2-0.4c0-0.4-0.2-1.2-0.4-1.5s-1-1.6-3.7-1.6c-2.1,0-3.7,1.3-3.7,3.5c0,1.7,0.8,2.8,3.7,5l0.8,0.7 c3.5,2.8,4.4,4.6,4.4,7c0,1.2-0.5,3.5-2.5,5c-1.3,0.9-2.9,1.3-4.5,1.3C485.4,624.2,484,624,482.8,623.4z"></path> <path d="M508,615.1c0,2.9,0,5.2,0.2,6.5c0.1,0.9,0.3,1.5,1.2,1.6c0.4,0.1,1.1,0.1,1.3,0.1s0.2,0.1,0.2,0.2s-0.2,0.2-0.5,0.2 c-1.6,0-3.5-0.1-3.7-0.1s-2,0.1-2.9,0.1c-0.3,0-0.5-0.1-0.5-0.2c0-0.1,0.1-0.2,0.2-0.2c0.3,0,0.6-0.1,0.9-0.1 c0.6-0.1,0.8-0.8,0.9-1.6c0.2-1.3,0.2-3.6,0.2-6.5v-12.7l-4.4,0.1c-1.9,0-2.6,0.2-3.1,1c-0.3,0.5-0.4,0.7-0.5,0.9 s-0.2,0.3-0.3,0.3s-0.2-0.1-0.2-0.3c0-0.3,0.6-2.9,0.7-3.1c0.1-0.2,0.2-0.6,0.3-0.6c0.2,0,0.5,0.3,1.3,0.4c0.9,0.1,2,0.1,2.4,0.1 h11.2c1,0,1.6-0.1,2.1-0.1c0.5-0.1,0.7-0.1,0.8-0.1c0.2,0,0.2,0.2,0.2,0.4c0,0.9-0.1,3-0.1,3.3s-0.1,0.4-0.2,0.4 c-0.1,0-0.2-0.1-0.2-0.5v-0.3c-0.1-0.9-0.8-1.6-3.7-1.6l-3.8-0.1V615.1L508,615.1z"></path> <path d="M524.6,615.1c0,2.9,0,5.2,0.2,6.5c0.1,0.9,0.3,1.5,1.2,1.6c0.4,0.1,1.1,0.1,1.3,0.1s0.2,0.1,0.2,0.2s-0.2,0.2-0.5,0.2 c-1.7,0-3.5-0.1-3.7-0.1c-0.1,0-2,0.1-2.9,0.1c-0.3,0-0.5-0.1-0.5-0.2c0-0.1,0.1-0.2,0.2-0.2c0.3,0,0.6-0.1,0.9-0.1 c0.6-0.1,0.8-0.8,0.9-1.6c0.2-1.3,0.2-3.6,0.2-6.5v-5.3c0-4.7,0-5.5-0.1-6.5s-0.4-1.5-1-1.7c-0.3-0.1-0.7-0.1-0.9-0.1 c-0.1,0-0.2-0.1-0.2-0.2c0-0.2,0.2-0.2,0.5-0.2c1,0,2.9,0.1,3,0.1c0.2,0,2-0.1,2.9-0.1c0.3,0,0.5,0.1,0.5,0.2s-0.1,0.2-0.2,0.2 c-0.2,0-0.4,0-0.8,0.1c-0.8,0.1-1,0.7-1.1,1.7s-0.1,1.8-0.1,6.5L524.6,615.1L524.6,615.1z"></path> <path d="M535.6,619.7c0.1,2.5,0.4,3.2,1.2,3.5c0.6,0.1,1.2,0.2,1.5,0.2c0.2,0,0.2,0.1,0.2,0.2c0,0.2-0.2,0.2-0.5,0.2 c-1.7,0-2.9-0.1-3.2-0.1s-1.5,0.1-2.9,0.1c-0.3,0-0.5,0-0.5-0.2c0-0.1,0.1-0.2,0.2-0.2c0.2,0,0.8,0,1.2-0.2 c0.8-0.2,0.9-1.1,0.9-3.8v-17.2c0-1.2,0.1-1.5,0.3-1.5s0.8,0.7,1,1c0.5,0.5,4.9,5.3,9.5,10.3c3,3.2,6.2,6.8,7.2,7.8l-0.3-15.2 c0-1.9-0.2-2.6-1.2-2.9c-0.5-0.1-1.2-0.1-1.5-0.1c-0.2,0-0.2-0.1-0.2-0.2c0-0.2,0.2-0.2,0.6-0.2c1.3,0,2.8,0.1,3.1,0.1 s1.3-0.1,2.5-0.1c0.3,0,0.5,0,0.5,0.2c0,0.1-0.1,0.2-0.3,0.2c-0.1,0-0.4,0-0.7,0.1c-1,0.2-1.1,0.9-1.1,2.7L553,622 c0,2-0.1,2.1-0.3,2.1s-0.6-0.3-2.2-1.9c-0.3-0.3-4.6-4.7-7.8-8.1c-3.5-3.8-6.9-7.5-7.8-8.6L535.6,619.7z"></path> <path d="M567.5,601.9c0.4-1,0.5-1.2,0.7-1.2s0.3,0.1,0.7,1.1c0.5,1.1,5.2,13.5,7,18.1c1.1,2.7,1.9,3.1,2.6,3.3 c0.5,0.1,0.9,0.2,1.2,0.2c0.2,0,0.3,0,0.3,0.2s-0.3,0.2-0.6,0.2c-0.5,0-2.6,0-4.7-0.1c-0.6,0-0.9,0-0.9-0.2c0-0.1,0.1-0.2,0.2-0.2 c0.2-0.1,0.4-0.3,0.2-0.8l-2.8-7.4c-0.1-0.1-0.1-0.2-0.3-0.2h-6.5c-0.2,0-0.2,0.1-0.3,0.2l-1.8,5.3c-0.3,0.8-0.4,1.5-0.4,2 c0,0.6,0.6,0.9,1.1,0.9h0.3c0.2,0,0.3,0.1,0.3,0.2c0,0.2-0.2,0.2-0.4,0.2c-0.7,0-2-0.1-2.3-0.1s-2,0.1-3.4,0.1 c-0.4,0-0.6-0.1-0.6-0.2c0-0.1,0.1-0.2,0.3-0.2s0.6,0,0.9-0.1c1.4-0.2,2-1.3,2.5-2.8L567.5,601.9z M570.6,613.9 c0.2,0,0.2-0.1,0.1-0.2l-2.8-8.1c-0.2-0.4-0.3-0.4-0.5,0l-2.6,8.1c-0.1,0.1,0,0.2,0.1,0.2H570.6z"></path> <path d="M598.6,607.5c0-5.5,0-6.4-0.1-7.6s-0.3-1.8-1.5-2c-0.3-0.1-0.9-0.1-1.2-0.1c-0.1,0-0.3-0.1-0.3-0.2c0-0.2,0.2-0.3,0.6-0.3 c1.6,0,3.8,0.1,4,0.1c0.4,0,3-0.1,4.1-0.1c2.2,0,4.6,0.2,6.4,1.5c0.9,0.6,2.4,2.3,2.4,4.8c0,2.6-1.1,5.2-4.2,8.1 c2.9,3.7,5.2,6.8,7.3,9c1.9,2,3.4,2.4,4.3,2.5c0.7,0.1,1.2,0.1,1.4,0.1s0.3,0.1,0.3,0.2c0,0.2-0.2,0.3-0.8,0.3h-2.5 c-2,0-2.8-0.2-3.7-0.7c-1.5-0.8-2.7-2.5-4.7-5.1c-1.5-1.9-3.1-4.3-3.8-5.2c-0.1-0.1-0.2-0.2-0.5-0.2l-4.3-0.1 c-0.2,0-0.2,0.1-0.2,0.3v0.8c0,3.4,0,6.1,0.2,7.6c0.1,1,0.3,1.8,1.4,1.9c0.5,0.1,1.3,0.1,1.6,0.1c0.2,0,0.3,0.1,0.3,0.2 c0,0.2-0.2,0.3-0.6,0.3c-1.9,0-4.1-0.1-4.3-0.1c0,0-2.2,0.1-3.3,0.1c-0.4,0-0.6-0.1-0.6-0.3c0-0.1,0.1-0.2,0.3-0.2 c0.3,0,0.7-0.1,1.1-0.1c0.7-0.1,0.9-0.9,1-1.9c0.2-1.5,0.2-4.2,0.2-7.6L598.6,607.5L598.6,607.5z M601.4,610.6 c0,0.2,0.1,0.3,0.2,0.4c0.5,0.3,2.1,0.6,3.7,0.6c0.8,0,1.8-0.1,2.6-0.7c1.2-0.8,2.1-2.7,2.1-5.4c0-4.4-2.3-7-6.1-7 c-1,0-2,0.1-2.3,0.2c-0.2,0.1-0.3,0.2-0.3,0.4L601.4,610.6L601.4,610.6z"></path> <path d="M628.7,615.1c0,2.9,0,5.2,0.2,6.5c0.1,0.9,0.3,1.5,1.2,1.6c0.4,0.1,1.1,0.1,1.3,0.1s0.2,0.1,0.2,0.2s-0.2,0.2-0.5,0.2 c-1.7,0-3.5-0.1-3.7-0.1c-0.1,0-2,0.1-2.9,0.1c-0.3,0-0.5-0.1-0.5-0.2c0-0.1,0.1-0.2,0.2-0.2c0.3,0,0.6-0.1,0.9-0.1 c0.6-0.1,0.7-0.8,0.9-1.6c0.2-1.3,0.2-3.6,0.2-6.5v-5.3c0-4.7,0-5.5-0.1-6.5s-0.4-1.5-1-1.7c-0.3-0.1-0.7-0.1-0.9-0.1 c-0.1,0-0.2-0.1-0.2-0.2c0-0.2,0.2-0.2,0.5-0.2c1,0,2.9,0.1,3,0.1c0.2,0,2-0.1,2.9-0.1c0.3,0,0.5,0.1,0.5,0.2s-0.1,0.2-0.2,0.2 c-0.2,0-0.4,0-0.8,0.1c-0.8,0.1-1,0.7-1.1,1.7s-0.1,1.8-0.1,6.5L628.7,615.1L628.7,615.1z"></path> <path d="M646.5,620.1c1.7-4,5.8-14.5,6.4-16.6c0.1-0.5,0.3-0.9,0.3-1.1s-0.1-0.5-0.4-0.7c-0.4-0.1-0.8-0.1-1.1-0.1 c-0.2,0-0.3,0-0.3-0.2s0.2-0.2,0.7-0.2c1.2,0,2.6,0.1,2.9,0.1c0.2,0,1.5-0.1,2.3-0.1c0.3,0,0.5,0.1,0.5,0.2c0,0.1-0.1,0.2-0.4,0.2 c-0.2,0-0.9,0-1.4,0.4c-0.4,0.3-0.8,0.8-1.6,2.8c-0.3,0.8-1.8,4.4-3.4,8.1c-1.8,4.4-3.2,7.6-3.9,9.1c-0.8,1.8-1,2.3-1.3,2.3 c-0.4,0-0.5-0.4-1.1-1.9l-7.3-18.4c-0.7-1.7-1.1-2-2.2-2.3c-0.4-0.1-1-0.1-1.1-0.1s-0.2-0.1-0.2-0.2c0-0.2,0.3-0.2,0.8-0.2 c1.4,0,3.1,0.1,3.5,0.1c0.3,0,1.7-0.1,2.8-0.1c0.5,0,0.8,0.1,0.8,0.2c0,0.1-0.1,0.2-0.3,0.2c-0.3,0-0.9,0-1.1,0.1 c-0.3,0.1-0.4,0.4-0.4,0.6c0,0.4,0.4,1.3,0.8,2.5L646.5,620.1z"></path> <path d="M663.1,609.8c0-4.7,0-5.5-0.1-6.5s-0.3-1.5-1.3-1.7c-0.2-0.1-0.8-0.1-1-0.1c-0.1,0-0.2-0.1-0.2-0.2c0-0.2,0.2-0.2,0.5-0.2 c0.7,0,1.5,0,2.2,0l1.2,0.1c0.2,0,6.2,0,6.9,0c0.6,0,1-0.1,1.3-0.1c0.1,0,0.3-0.1,0.4-0.1c0.1,0,0.1,0.1,0.1,0.3s-0.2,0.6-0.2,1.4 c0,0.3-0.1,1.6-0.2,2c0,0.1-0.1,0.3-0.2,0.3c-0.2,0-0.2-0.1-0.2-0.4c0-0.2,0-0.7-0.2-1.1c-0.2-0.5-0.5-0.8-2.1-1 c-0.5-0.1-3.8-0.1-4.1-0.1c-0.1,0-0.2,0.1-0.2,0.3v8.3c0,0.2,0,0.3,0.2,0.3c0.4,0,4.1,0,4.8-0.1s1.1-0.1,1.4-0.4 c0.2-0.2,0.3-0.4,0.4-0.4c0.1,0,0.2,0.1,0.2,0.2s-0.2,0.7-0.2,1.7c-0.1,0.6-0.1,1.7-0.1,1.9s0,0.6-0.2,0.6c-0.1,0-0.2-0.1-0.2-0.3 c0-0.3,0-0.6-0.1-1s-0.4-0.9-1.6-1.1c-0.8-0.1-3.8-0.1-4.3-0.1c-0.1,0-0.2,0.1-0.2,0.2v2.6c0,1,0,4.5,0,5.1 c0.1,2.1,0.5,2.5,3.5,2.5c0.8,0,2.1,0,2.9-0.3c0.8-0.3,1.1-0.9,1.3-2.2c0.1-0.3,0.1-0.5,0.3-0.5s0.2,0.2,0.2,0.5 c0,0.2-0.2,2.3-0.4,2.9c-0.2,0.8-0.4,0.8-1.6,0.8c-2.2,0-3.9-0.1-5.1-0.1c-1.2-0.1-1.9-0.1-2.3-0.1c-0.1,0-0.6,0-1.2,0 c-0.6,0-1.3,0.1-1.7,0.1c-0.3,0-0.5-0.1-0.5-0.2c0-0.1,0.1-0.2,0.2-0.2c0.3,0,0.6-0.1,0.9-0.1c0.6-0.1,0.7-0.8,0.9-1.6 c0.2-1.3,0.2-3.6,0.2-6.5L663.1,609.8L663.1,609.8z"></path> <path d="M680.3,609.8c0-4.7,0-5.5-0.1-6.5s-0.3-1.5-1.3-1.7c-0.2-0.1-0.8-0.1-1-0.1c-0.1,0-0.2-0.1-0.2-0.2c0-0.2,0.2-0.2,0.5-0.2 c1.3,0,3.2,0.1,3.4,0.1c0.3,0,2.6-0.1,3.5-0.1c1.9,0,3.9,0.2,5.5,1.3c0.8,0.5,2.1,2,2.1,4.1c0,2.2-0.9,4.4-3.6,6.9 c2.5,3.1,4.5,5.8,6.2,7.7c1.6,1.7,2.9,2,3.7,2.2c0.6,0.1,1,0.1,1.2,0.1s0.3,0.1,0.3,0.2c0,0.2-0.2,0.2-0.7,0.2h-2.1 c-1.7,0-2.4-0.1-3.2-0.6c-1.3-0.7-2.3-2.2-4-4.4c-1.3-1.6-2.7-3.7-3.3-4.4c-0.1-0.1-0.2-0.2-0.4-0.2l-3.7-0.1 c-0.1,0-0.2,0.1-0.2,0.2v0.7c0,2.9,0,5.2,0.2,6.5c0.1,0.9,0.3,1.5,1.2,1.6c0.4,0.1,1.1,0.1,1.3,0.1s0.2,0.1,0.2,0.2 c0,0.1-0.1,0.2-0.5,0.2c-1.7,0-3.5-0.1-3.7-0.1c0,0-1.9,0.1-2.8,0.1c-0.3,0-0.5-0.1-0.5-0.2c0-0.1,0.1-0.2,0.2-0.2 c0.3,0,0.6-0.1,0.9-0.1c0.6-0.1,0.7-0.8,0.9-1.6c0.2-1.3,0.2-3.6,0.2-6.5L680.3,609.8L680.3,609.8z M682.7,612.4 c0,0.1,0.1,0.3,0.2,0.4c0.5,0.3,1.8,0.5,3.2,0.5c0.7,0,1.6-0.1,2.2-0.6c1-0.7,1.8-2.3,1.8-4.6c0-3.8-2-6-5.2-6 c-0.9,0-1.7,0.1-2,0.2c-0.1,0.1-0.2,0.2-0.2,0.4V612.4L682.7,612.4z"></path> <path d="M711,600.7c6.8,0,11.8,4.3,11.8,11.2c0,6.7-4.7,12.3-12,12.3c-8.2,0-11.6-6.4-11.6-11.8 C699.2,607.6,702.7,600.7,711,600.7z M711.6,623.1c2.7,0,8.3-1.6,8.3-10.3c0-7.2-4.4-11.1-9.1-11.1c-5,0-8.8,3.3-8.8,9.9 C702,618.6,706.2,623.1,711.6,623.1z"></path> </g> </g> <g> <g> <path d="M448.6,187.7c0.8-3.6,1.7-7,2.5-10.2c2.1-8.5,4.9-16.7,7.8-24.8c3.6-9.3,6.6-18.7,8.9-28.6c2.8-9.8,4.9-19.5,6.6-29.7 c0-0.8,0.4-2.1,0.4-2.8c0.4-0.8,0.4-1.7,1.3-2.1c0.8-0.8,1.7-0.8,2.5-1.3c0.4,0.8,0.8,1.3,0.4,2.1c-0.4,3.2-0.8,6.6-1.3,9.8 c-0.8,8.5-1.7,16.7-2.1,25.2c0,2.1,0.4,4,0.4,5.7c0,4.9-0.4,9.8-0.4,14.2c-0.4,6.1-0.4,12.3-1.3,18.4c-0.8,9.8-2.1,19.9-2.8,29.7 c0,0.4,0,0.4,0,0.8c0.4,0.4,1.3,0.8,1.7,0.8c4,2.1,8.1,3.6,12.3,5.7c2.5,1.3,4.9,2.5,7,4c8.9,7,17.2,14.2,22.9,24 c4.9,8.5,8.5,17.6,9.8,27.4c1.7,13.8-1.3,26.5-9.8,38c-5.3,7-11.4,13.1-18,18.7c-0.4,0.4-0.8,0.8-1.3,1.3c0,0,0,0-0.4,0.4 c0.8,1.3,1.7,2.1,2.5,3.2c4.5,6.1,7.8,12.7,10.2,19.5c2.5,7.8,5.3,15.1,6.6,22.9c0.8,5.7,1.7,11.4,2.5,17.2 c1.3,11.9,4,23.3,8.1,34.3c3.6,10.2,9.8,18.7,17.6,26.1c7,7,15.1,9.8,24.4,11c6.6,0.8,13.1,0.8,19.5,0c2.5-0.4,4.9-1.3,7-2.1 c4.9-2.5,9.8-4.9,14.6-7.8c0.8-0.4,1.7-0.8,2.5-0.8c-0.4,0.4-0.4,1.3-0.8,1.7c-3.2,3.6-7.4,6.6-11.9,8.5 c-8.1,3.6-17.2,6.1-26.1,8.1c-9.8,2.5-19.9,3.2-29.7,2.8c-4.9-0.4-9.3-0.8-13.8-2.1c-7.8-2.1-14.2-6.1-19.5-11.9 c-9.3-10.2-15.9-22-19.1-35.8c-2.5-10.2-4.5-20.4-5.3-31c-0.8-7-2.1-13.8-4-20.4c-2.1-6.6-3.6-13.1-5.7-19.5 c-1.3-3.6-2.8-7.4-4.5-11.4c-0.8,0.4-1.7,0.4-2.1,0.8c-6.6,2.5-13.1,4.5-19.9,7c-1.7,0.4-2.1,1.3-2.8,2.5 c-2.1,5.3-3.6,10.6-4.5,16.3c-0.4,1.7-0.8,3.2-1.7,4.9c-2.1,5.3-4.5,10.2-7,15.5c-0.4,1.3-1.3,2.1-2.5,3.2 c-0.4-1.3-0.8-2.1-1.3-2.5c-1.3-4.5-2.1-9.3-3.2-13.8c-0.4-1.3,0-2.1,0-3.2c0-6.1,0-12.3,0-18.4c-0.8,0-2.1,0-2.8,0 c-4.9,0-9.8,0-14.6-0.4c-2.5,0-4.5-1.3-6.6-1.7c-8.5-2.5-13.8-8.1-16.7-16.3c-2.1-6.1-1.7-11.9,1.3-18 c4.5-9.3,11.9-15.5,21.6-18.7c7.4-2.5,14.6-3.6,22-4c0.8,0,2.1,0,2.8-0.4c4-25.2,8.1-50.7,12.3-75.9c-4.9-2.5-9.8-4.9-15.1-6.1 c-6.6-1.7-13.1-2.5-19.9-2.5c-7,0-13.8,0-21.2,0.4c-3.6,0-7.4,0.8-10.6,1.7c-5.3,1.3-10.2,2.8-15.5,4.5 c-6.6,1.7-12.7,4.5-18.4,7.8c-15.9,8.5-31,18.7-44.1,31.4c-8.5,7.8-15.1,17.6-21.2,27.4c-4,6.6-7.8,13.1-10.6,19.9 c-4,11-7,22-8.1,33.5c-0.8,7-0.8,14.2-0.4,21.2c0.4,8.1,1.7,16.3,3.6,24.4c2.8,11.9,8.1,22,14.2,32.2 c8.5,13.8,19.5,24.8,32.2,34.8c2.5,2.1,4.9,3.6,7.4,5.7c6.6,5.7,14.2,9.3,22.5,12.7c13.1,4.9,26.1,8.9,39.9,11 c5.3,0.8,10.6,0.4,15.9,0.4c8.5,0,17.2-1.7,25.2-4c2.1-0.4,3.6-1.3,5.7-1.7c-0.4,0.4-0.8,0.8-1.3,1.3c-2.1,0.8-3.6,1.7-5.7,2.5 c-12.7,4-25.7,5.3-38.8,5.7c-8.9,0.4-18-0.8-26.9-2.5c-11.4-2.1-22.9-4.5-33.9-7.8c-11.9-3.2-22.5-8.9-32.2-16.3 c-7.8-5.7-15.5-11.4-22.5-18.4c-9.8-10.2-18.7-21.2-24.4-34.3c-3.6-8.5-5.7-17.6-7.4-26.5c-1.7-10.6-2.1-21.2-0.8-31.4 c1.7-19.5,7.4-38,18.4-54.3c4-5.7,7.8-11.9,11.9-17.6c6.1-8.1,13.4-14.6,21.6-20.8c15.5-11.9,31.8-22.5,49.8-30.1 c6.6-2.8,13.1-5.3,19.9-7.4c11.9-3.6,23.7-7,35.4-10.2c9.3-2.5,19.1-3.6,29-3.6c4.5,0,8.9-0.4,13.4,0c4.9,0,9.3,0.4,14.2,0.8 C447.3,187.7,447.7,187.7,448.6,187.7z M468.5,217.6c-3.2,22-7.4,43.7-9.8,66.1c0.8,0.4,1.3,0.8,2.1,1.3 c8.1,3.6,15.5,8.5,21.6,15.5c1.3,1.7,2.8,2.8,4.5,4.5c1.3-1.7,2.5-3.2,3.2-4.9c3.2-4.9,5.7-9.8,7-15.5c1.7-7.8,1.3-15.5-0.4-23.3 c-3.6-17.6-13.1-32.2-27.4-43.3C469.4,217.6,468.9,217.6,468.5,217.6z M427.4,332.1c0-2.1-0.4-3.2,0-4.9c0.4-4.9,0.8-9.3,1.3-13.8 c1.3-8.1,2.5-15.9,3.6-24c0-1.3,0-2.1,0.4-3.6c-2.1-0.4-4-0.8-5.7-0.8c-4,0-8.1,0.4-12.3,0.8c-1.3,0-2.5,0.8-3.2,1.7 c-6.6,4.9-9.3,11.9-9.8,19.5c-0.4,6.6,2.1,12.3,7.4,16.3c4.5,3.6,8.9,6.1,14.2,7.8C424,331.6,425.7,331.6,427.4,332.1z M455.2,304.1c-0.4,0.8-0.4,1.3-0.4,1.7c-2.1,7.4-2.8,15.5-5.7,22.5c-0.4,1.3-0.4,2.5-0.8,3.6c4-0.4,17.2-7,19.5-9.3 C465.3,317.4,457.9,306.4,455.2,304.1z"></path> <path d="M434,385.9c0,2.5,0,4.5,0,6.6c0,1.3,0.4,2.1,1.7,2.1s2.1,0.8,2.5,2.5v0.4c2.8,3.6,2.1,8.1,1.7,12.7 c-0.4,5.7-1.7,11.4-2.5,17.2c-0.4,1.7-0.4,3.2,0.4,4.5v0.4c0,3.6,2.5,5.7,4.5,7.8c0.4,0.4,1.3,1.3,1.7,1.7c0,0.4,0,0.4-0.4,0.8 c-0.4,0-1.3,0-1.7,0c-1.7-1.3-3.6-2.5-5.3-4c-1.3-1.3-2.5-2.1-3.6-2.5c-2.5-0.4-4-1.7-5.3-3.6c-0.8-1.3-2.1-2.5-3.2-3.2 c-3.2-2.8-5.7-7-6.1-11.4c-0.4-3.2,0-6.1,0.4-9.3v-0.4c2.5-2.8,2.5-7.8,6.1-9.3c1.3-2.5,2.5-4.9,3.6-7.4c0.4-0.8,0.8-2.5,1.3-3.2 C431,385.5,431.8,385.1,434,385.9z"></path> </g> </g> </svg> 